<svg version="1.1" viewBox="0 0 128 128" xmlns="http://www.w3.org/2000/svg">
<path d="m71.2 5.75c-1.59-0.0722-2.83 0.243-3.61 1.02-2.25 2.25-2.25 5.87 0 8.13l15.7 15.7-32.2 32.2c-2.2-1.31-5.08-1.01-6.98 0.885l-40.6 40.6c-2.25 2.25-2.25 5.87 0 8.12l6.6 6.6c0.00302 0.00302 0.00674 0.00481 0.00977 0.00781l1.51 1.51c2.25 2.25 5.87 2.25 8.12 0l40.6-40.6c1.9-1.9 2.19-4.77 0.885-6.98l32.2-32.2 14.8 14.8c2.25 2.25 5.87 2.25 8.12 0l8.12-8.12c2.25-2.25 2.25-5.87 0-8.12-4.22-4.22-9.95-9.03-16.2-13.7 0.609-1.32 0.376-2.93-0.719-4.03l-5.08-5.08c-1.41-1.41-3.67-1.41-5.08 0l-0.898 0.898c-10.1-6.49-19.8-11.4-25.3-11.6z" fill="#ffffff"/>
</svg>
